<mxfile host="app.diagrams.net" modified="2023-10-19T11:00:44.027Z" agent="Mozilla/5.0 (Windows NT 10.0; Win64; x64) AppleWebKit/537.36 (KHTML, like Gecko) Chrome/116.0.5845.888 YaBrowser/23.9.2.888 Yowser/2.5 Safari/537.36" etag="EpG0ZKSQfkKXv7ErVQNm" version="22.0.4" type="device">
  <diagram name="Страница — 1" id="v3qZaNh-PvmP-Cpy_Fwz">
    <mxGraphModel dx="832" dy="517" grid="1" gridSize="10" guides="1" tooltips="1" connect="1" arrows="1" fold="1" page="1" pageScale="1" pageWidth="827" pageHeight="1169" math="0" shadow="0">
      <root>
        <mxCell id="0" />
        <mxCell id="1" parent="0" />
        <mxCell id="QujH4edd8LWd98LVAzMM-3" value="" style="swimlane;rotation=-90;" parent="1" vertex="1">
          <mxGeometry x="388.5" y="240" width="107" height="200" as="geometry" />
        </mxCell>
        <mxCell id="QujH4edd8LWd98LVAzMM-4" value="Занесение результатов в общую таблицу результатов" style="text;strokeColor=none;align=center;fillColor=none;html=1;verticalAlign=middle;whiteSpace=wrap;rounded=0;" parent="QujH4edd8LWd98LVAzMM-3" vertex="1">
          <mxGeometry x="-18" y="85" width="143" height="30" as="geometry" />
        </mxCell>
        <mxCell id="QujH4edd8LWd98LVAzMM-10" value="" style="swimlane;rotation=-90;" parent="1" vertex="1">
          <mxGeometry x="398.5" y="135.5" width="87" height="200" as="geometry" />
        </mxCell>
        <mxCell id="QujH4edd8LWd98LVAzMM-11" value="Регистрация спортсмена в электронной системе" style="text;strokeColor=none;align=center;fillColor=none;html=1;verticalAlign=middle;whiteSpace=wrap;rounded=0;" parent="QujH4edd8LWd98LVAzMM-10" vertex="1">
          <mxGeometry x="-18" y="85" width="143" height="30" as="geometry" />
        </mxCell>
        <mxCell id="QujH4edd8LWd98LVAzMM-14" value="" style="swimlane;rotation=-90;" parent="1" vertex="1">
          <mxGeometry x="398.5" y="30" width="87" height="200" as="geometry" />
        </mxCell>
        <mxCell id="QujH4edd8LWd98LVAzMM-15" value="Запись об окончании тренировки" style="text;strokeColor=none;align=center;fillColor=none;html=1;verticalAlign=middle;whiteSpace=wrap;rounded=0;" parent="QujH4edd8LWd98LVAzMM-14" vertex="1">
          <mxGeometry x="-18" y="85" width="143" height="30" as="geometry" />
        </mxCell>
        <mxCell id="oeobFlKYm54K7uBMWs5m-1" value="" style="swimlane;rotation=-90;" vertex="1" parent="1">
          <mxGeometry x="398.5" y="350" width="87" height="200" as="geometry" />
        </mxCell>
        <mxCell id="oeobFlKYm54K7uBMWs5m-2" value="Формирование отчёта об окончании тренировки" style="text;strokeColor=none;align=center;fillColor=none;html=1;verticalAlign=middle;whiteSpace=wrap;rounded=0;" vertex="1" parent="oeobFlKYm54K7uBMWs5m-1">
          <mxGeometry x="-18" y="85" width="143" height="30" as="geometry" />
        </mxCell>
      </root>
    </mxGraphModel>
  </diagram>
</mxfile>
